<svg width="160" height="31" viewBox="0 0 160 31" fill="none" xmlns="http://www.w3.org/2000/svg">
<path d="M9.60024 12.4258H0.396484V16.6587H13.8659L9.60024 12.4258Z" fill="white"/>
<path d="M19.3509 21.2354H28.5547V17.0025H15.0853L19.3509 21.2354Z" fill="white"/>
<path d="M19.0518 11.9842L19.0039 2.68359L14.8152 2.70575L14.8854 16.3169L19.0518 11.9842Z" fill="white"/>
<path d="M9.89921 21.6769L9.94727 30.9775L14.136 30.9554L14.0656 17.3443L9.89921 21.6769Z" fill="white"/>
<path d="M14.12 10.3859L7.7168 3.70508L4.70794 6.64998L14.0788 16.4272L14.12 10.3859Z" fill="white"/>
<path d="M14.8312 23.2762L21.2344 29.957L24.2432 27.0121L14.8724 17.2349L14.8312 23.2762Z" fill="white"/>
<path d="M21.0942 16.5406L27.6719 10.0352L24.742 7.01002L15.1158 16.5305L21.0942 16.5406Z" fill="white"/>
<path d="M7.85698 17.1215L1.2793 23.627L4.20916 26.6521L13.8354 17.1316L7.85698 17.1215Z" fill="white"/>
<g clip-path="url(#clip0_154_1629)">
<path d="M36.0527 29.2574L41.7261 6.48018H45.9566L49.7279 23.3679L53.2697 6.48018H57.369L63.3703 29.2574H59.2382L55.3686 14.0943L52.0563 29.2574H47.4979L43.7922 14.0943L40.1848 29.2574H36.0527ZM64.854 29.2574V6.48018H79.3818V10.1571H68.7565V15.8514H77.1846V19.5283H68.7565V25.5806H79.3818V29.2574H64.854ZM81.6674 29.2574V6.48018H90.7187C95.2115 6.48018 97.3234 10.2453 97.3234 13.0686C97.3234 15.5943 96.2861 19.5283 91.7933 19.5283L98.2613 29.2574H94.3588L87.7116 19.5283H85.5699V29.2574H81.6674ZM85.5699 15.8514H90.7514C92.5223 15.8514 93.3733 14.2725 93.3733 13.0686C93.3733 11.8972 92.5223 10.1571 90.7514 10.1571H85.5699V15.8514ZM99.4019 29.2574V25.5806H100.877V10.1571H99.4019V6.48018H106.256V10.1571H104.78V25.5806H106.256V29.2574H99.4019ZM98.4181 2.25011L104.715 0.916016L107.272 4.52784H99.8938L98.4181 2.25011ZM108.71 29.2574L111.17 10.1571H108.71V6.48018H116.023C123.303 6.48018 126.747 11.9467 126.747 17.5434C126.747 23.3354 123.041 29.2574 116.023 29.2574H108.71ZM113.104 25.5806H116.056C120.352 25.5806 122.713 21.4807 122.713 17.5109C122.713 13.7689 120.614 10.1571 116.056 10.1571H115.072L113.104 25.5806ZM127.905 29.2574V25.5806H129.38V10.1571H127.905V6.48018H134.759V10.1571H133.283V25.5806H134.759V29.2574H127.905ZM147.599 29.5829C141.433 29.5829 135.924 24.9623 135.924 17.8688C135.924 10.8404 141.433 6.15479 147.599 6.15479C153.731 6.15479 159.273 10.8404 159.273 17.8688C159.273 24.9623 153.731 29.5829 147.599 29.5829ZM139.958 17.8688C139.958 22.7497 143.532 25.7758 147.599 25.7758C151.632 25.7758 155.24 22.7497 155.24 17.8688C155.24 13.053 151.632 9.96188 147.599 9.96188C143.532 9.96188 139.958 13.053 139.958 17.8688Z" fill="white"/>
</g>
<defs>
<clipPath id="clip0_154_1629">
<rect width="124.032" height="29.4847" fill="white" transform="translate(35.5703 0.413086)"/>
</clipPath>
</defs>
</svg>
